NunitoSans-ExtraLight.ufo
<glyph name="zero" format="2">
  <advance width="600"/>
  <unicode hex="0030"/>
  <outline>
    <contour>
      <point x="300" y="-8" type="curve" smooth="yes"/>
      <point x="455" y="-8"/>
      <point x="538" y="117"/>
      <point x="538" y="353" type="curve" smooth="yes"/>
      <point x="538" y="590"/>
      <point x="457" y="713"/>
      <point x="300" y="713" type="curve" smooth="yes"/>
      <point x="144" y="713"/>
      <point x="62" y="589"/>
      <point x="62" y="352" type="curve" smooth="yes"/>
      <point x="62" y="117"/>
      <point x="144" y="-8"/>
    </contour>
    <contour>
      <point x="300" y="33" type="curve" smooth="yes"/>
      <point x="169" y="33"/>
      <point x="107" y="136"/>
      <point x="107" y="353" type="curve" smooth="yes"/>
      <point x="107" y="570"/>
      <point x="169" y="672"/>
      <point x="300" y="672" type="curve" smooth="yes"/>
      <point x="432" y="672"/>
      <point x="493" y="572"/>
      <point x="493" y="353" type="curve" smooth="yes"/>
      <point x="493" y="136"/>
      <point x="431" y="33"/>
    </contour>
  </outline>
</glyph>
<glyph name="question" format="2">
  <advance width="429"/>
  <unicode hex="003F"/>
  <outline>
    <contour>
      <point x="181" y="162" type="line"/>
      <point x="211" y="162" type="line"/>
      <point x="213" y="184" type="line" smooth="yes"/>
      <point x="218" y="245"/>
      <point x="243" y="296"/>
      <point x="306" y="371" type="curve" smooth="yes"/>
      <point x="373" y="451"/>
      <point x="397" y="498"/>
      <point x="397" y="563" type="curve" smooth="yes"/>
      <point x="397" y="653"/>
      <point x="327" y="713"/>
      <point x="221" y="713" type="curve" smooth="yes"/>
      <point x="133" y="713"/>
      <point x="50" y="675"/>
      <point x="2" y="620" type="curve"/>
      <point x="22" y="584" type="line"/>
      <point x="78" y="642"/>
      <point x="142" y="672"/>
      <point x="222" y="672" type="curve" smooth="yes"/>
      <point x="303" y="672"/>
      <point x="353" y="630"/>
      <point x="353" y="563" type="curve" smooth="yes"/>
      <point x="353" y="508"/>
      <point x="333" y="465"/>
      <point x="275" y="396" type="curve" smooth="yes"/>
      <point x="205" y="312"/>
      <point x="181" y="254"/>
      <point x="181" y="182" type="curve" smooth="yes"/>
    </contour>
    <contour>
      <point x="162" y="0" type="line"/>
      <point x="230" y="0" type="line"/>
      <point x="230" y="70" type="line"/>
      <point x="162" y="70" type="line"/>
    </contour>
  </outline>
</glyph>
<glyph name="E" format="2">
  <advance width="570"/>
  <unicode hex="0045"/>
  <guideline x="520" y="353" angle="270"/>
  <anchor x="320" y="0" name="bottom"/>
  <anchor x="490" y="0" name="ogonek"/>
  <anchor x="320" y="705" name="top"/>
  <anchor x="27" y="705" name="topleft"/>
  <outline>
    <contour>
      <point x="96" y="0" type="line"/>
      <point x="520" y="0" type="line"/>
      <point x="520" y="39" type="line"/>
      <point x="138" y="39" type="line"/>
      <point x="138" y="338" type="line"/>
      <point x="500" y="338" type="line"/>
      <point x="500" y="377" type="line"/>
      <point x="138" y="377" type="line"/>
      <point x="138" y="666" type="line"/>
      <point x="520" y="666" type="line"/>
      <point x="520" y="705" type="line"/>
      <point x="96" y="705" type="line"/>
    </contour>
  </outline>
</glyph>
<glyph name="M" format="2">
  <advance width="844"/>
  <unicode hex="004D"/>
  <anchor x="422" y="0" name="bottom"/>
  <anchor x="422" y="705" name="top"/>
  <outline>
    <contour>
      <point x="98" y="0" type="line"/>
      <point x="137" y="0" type="line"/>
      <point x="137" y="666" type="line"/>
      <point x="112" y="666" type="line"/>
      <point x="406" y="110" type="line"/>
      <point x="441" y="110" type="line"/>
      <point x="731" y="665" type="line"/>
      <point x="707" y="665" type="line"/>
      <point x="707" y="0" type="line"/>
      <point x="746" y="0" type="line"/>
      <point x="746" y="705" type="line"/>
      <point x="710" y="705" type="line"/>
      <point x="409" y="127" type="line"/>
      <point x="437" y="127" type="line"/>
      <point x="134" y="705" type="line"/>
      <point x="98" y="705" type="line"/>
    </contour>
  </outline>
</glyph>
<glyph name="a" format="2">
  <advance width="514"/>
  <unicode hex="0061"/>
  <anchor x="262" y="0" name="bottom"/>
  <anchor x="431" y="0" name="ogonek"/>
  <anchor x="265" y="484" name="top"/>
  <outline>
    <contour>
      <point x="231" y="-8" type="curve" smooth="yes"/>
      <point x="316" y="-8"/>
      <point x="380" y="41"/>
      <point x="401" y="121" type="curve"/>
      <point x="390" y="121" type="line"/>
      <point x="390" y="0" type="line"/>
      <point x="431" y="0" type="line"/>
      <point x="431" y="315" type="line" smooth="yes"/>
      <point x="431" y="436"/>
      <point x="379" y="492"/>
      <point x="269" y="492" type="curve" smooth="yes"/>
      <point x="205" y="492"/>
      <point x="135" y="470"/>
      <point x="84" y="434" type="curve"/>
      <point x="104" y="398" type="line"/>
      <point x="161" y="437"/>
      <point x="211" y="453"/>
      <point x="271" y="453" type="curve" smooth="yes"/>
      <point x="353" y="453"/>
      <point x="389" y="411"/>
      <point x="389" y="315" type="curve" smooth="yes"/>
      <point x="389" y="201" type="line" smooth="yes"/>
      <point x="389" y="103"/>
      <point x="325" y="30"/>
      <point x="234" y="30" type="curve" smooth="yes"/>
      <point x="158" y="30"/>
      <point x="110" y="75"/>
      <point x="110" y="139" type="curve" smooth="yes"/>
      <point x="110" y="216"/>
      <point x="163" y="238"/>
      <point x="361" y="238" type="curve" smooth="yes"/>
      <point x="400" y="238" type="line"/>
      <point x="400" y="275" type="line"/>
      <point x="359" y="275" type="line" smooth="yes"/>
      <point x="133" y="275"/>
      <point x="64" y="242"/>
      <point x="64" y="135" type="curve" smooth="yes"/>
      <point x="64" y="55"/>
      <point x="137" y="-8"/>
    </contour>
  </outline>
</glyph>
<glyph name="c" format="2">
  <advance width="455"/>
  <unicode hex="0063"/>
  <guideline x="429" y="199" angle="90"/>
  <anchor x="273" y="0" name="bottom"/>
  <anchor x="273" y="484" name="top"/>
  <outline>
    <contour>
      <point x="274" y="-8" type="curve" smooth="yes"/>
      <point x="330" y="-8"/>
      <point x="392" y="17"/>
      <point x="430" y="58" type="curve"/>
      <point x="410" y="91" type="line"/>
      <point x="367" y="48"/>
      <point x="317" y="31"/>
      <point x="273" y="31" type="curve" smooth="yes"/>
      <point x="159" y="31"/>
      <point x="96" y="112"/>
      <point x="96" y="245" type="curve" smooth="yes"/>
      <point x="96" y="378"/>
      <point x="159" y="453"/>
      <point x="273" y="453" type="curve" smooth="yes"/>
      <point x="317" y="453"/>
      <point x="367" y="436"/>
      <point x="410" y="393" type="curve"/>
      <point x="430" y="426" type="line"/>
      <point x="392" y="467"/>
      <point x="332" y="492"/>
      <point x="274" y="492" type="curve" smooth="yes"/>
      <point x="136" y="492"/>
      <point x="53" y="398"/>
      <point x="53" y="246" type="curve" smooth="yes"/>
      <point x="53" y="94"/>
      <point x="136" y="-8"/>
    </contour>
  </outline>
</glyph>
<glyph name="e" format="2">
  <advance width="523"/>
  <unicode hex="0065"/>
  <anchor x="277" y="0" name="bottom"/>
  <anchor x="342" y="0" name="ogonek"/>
  <anchor x="277" y="484" name="top"/>
  <outline>
    <contour>
      <point x="286" y="-8" type="curve" smooth="yes"/>
      <point x="355" y="-8"/>
      <point x="426" y="18"/>
      <point x="467" y="60" type="curve"/>
      <point x="447" y="94" type="line"/>
      <point x="395" y="48"/>
      <point x="344" y="31"/>
      <point x="284" y="31" type="curve" smooth="yes"/>
      <point x="165" y="31"/>
      <point x="96" y="107"/>
      <point x="96" y="240" type="curve" smooth="yes"/>
      <point x="96" y="245" type="line" smooth="yes"/>
      <point x="96" y="364"/>
      <point x="159" y="454"/>
      <point x="276" y="454" type="curve" smooth="yes"/>
      <point x="382" y="454"/>
      <point x="436" y="380"/>
      <point x="436" y="259" type="curve"/>
      <point x="453" y="271" type="line"/>
      <point x="80" y="271" type="line"/>
      <point x="80" y="234" type="line"/>
      <point x="475" y="234" type="line"/>
      <point x="475" y="260" type="line" smooth="yes"/>
      <point x="475" y="405"/>
      <point x="402" y="492"/>
      <point x="277" y="492" type="curve" smooth="yes"/>
      <point x="144" y="492"/>
      <point x="53" y="391"/>
      <point x="53" y="240" type="curve" smooth="yes"/>
      <point x="53" y="86"/>
      <point x="142" y="-8"/>
    </contour>
  </outline>
</glyph>
<glyph name="h" format="2">
  <advance width="553"/>
  <unicode hex="0068"/>
  <anchor x="277" y="0" name="bottom"/>
  <anchor x="277" y="245" name="center"/>
  <anchor x="204" y="353" name="dot"/>
  <anchor x="157" y="580" name="stroke"/>
  <anchor x="278" y="705" name="top"/>
  <anchor x="169" y="705" name="topright"/>
  <outline>
    <contour>
      <point x="85" y="0" type="line"/>
      <point x="127" y="0" type="line"/>
      <point x="127" y="278" type="line" smooth="yes"/>
      <point x="127" y="384"/>
      <point x="194" y="453"/>
      <point x="297" y="453" type="curve" smooth="yes"/>
      <point x="389" y="453"/>
      <point x="428" y="406"/>
      <point x="428" y="304" type="curve" smooth="yes"/>
      <point x="428" y="0" type="line"/>
      <point x="470" y="0" type="line"/>
      <point x="470" y="308" type="line" smooth="yes"/>
      <point x="470" y="430"/>
      <point x="413" y="492"/>
      <point x="297" y="492" type="curve" smooth="yes"/>
      <point x="212" y="492"/>
      <point x="141" y="450"/>
      <point x="115" y="366" type="curve"/>
      <point x="127" y="366" type="line"/>
      <point x="127" y="705" type="line"/>
      <point x="85" y="705" type="line"/>
    </contour>
  </outline>
</glyph>
<glyph name="j" format="2">
  <advance width="215"/>
  <unicode hex="006A"/>
  <outline>
    <contour>
      <point x="77" y="619" type="line"/>
      <point x="141" y="619" type="line"/>
      <point x="141" y="682" type="line"/>
      <point x="77" y="682" type="line"/>
    </contour>
    <contour>
      <point x="-55" y="-193" type="line"/>
      <point x="-12" y="-190" type="line" smooth="yes"/>
      <point x="78" y="-184"/>
      <point x="130" y="-124"/>
      <point x="130" y="-21" type="curve" smooth="yes"/>
      <point x="130" y="484" type="line"/>
      <point x="88" y="484" type="line"/>
      <point x="88" y="-22" type="line" smooth="yes"/>
      <point x="88" y="-102"/>
      <point x="51" y="-147"/>
      <point x="-17" y="-152" type="curve" smooth="yes"/>
      <point x="-58" y="-155" type="line"/>
    </contour>
  </outline>
</glyph>
<glyph name="k" format="2">
  <advance width="468"/>
  <unicode hex="006B"/>
  <anchor x="234" y="0" name="bottom"/>
  <anchor x="278" y="705" name="top"/>
  <outline>
    <contour>
      <point x="85" y="0" type="line"/>
      <point x="127" y="0" type="line"/>
      <point x="127" y="237" type="line"/>
      <point x="129" y="237" type="line"/>
      <point x="408" y="0" type="line"/>
      <point x="467" y="0" type="line"/>
      <point x="154" y="267" type="line"/>
      <point x="154" y="231" type="line"/>
      <point x="440" y="484" type="line"/>
      <point x="380" y="484" type="line"/>
      <point x="129" y="260" type="line"/>
      <point x="127" y="260" type="line"/>
      <point x="127" y="705" type="line"/>
      <point x="85" y="705" type="line"/>
    </contour>
  </outline>
</glyph>
<glyph name="n" format="2">
  <advance width="553"/>
  <unicode hex="006E"/>
  <anchor x="277" y="0" name="bottom"/>
  <anchor x="277" y="484" name="top"/>
  <outline>
    <contour>
      <point x="85" y="0" type="line"/>
      <point x="127" y="0" type="line"/>
      <point x="127" y="278" type="line" smooth="yes"/>
      <point x="127" y="384"/>
      <point x="194" y="453"/>
      <point x="297" y="453" type="curve" smooth="yes"/>
      <point x="389" y="453"/>
      <point x="428" y="406"/>
      <point x="428" y="304" type="curve" smooth="yes"/>
      <point x="428" y="0" type="line"/>
      <point x="470" y="0" type="line"/>
      <point x="470" y="308" type="line" smooth="yes"/>
      <point x="470" y="432"/>
      <point x="413" y="492"/>
      <point x="297" y="492" type="curve" smooth="yes"/>
      <point x="212" y="492"/>
      <point x="141" y="450"/>
      <point x="115" y="366" type="curve"/>
      <point x="126" y="366" type="line"/>
      <point x="126" y="484" type="line"/>
      <point x="85" y="484" type="line"/>
    </contour>
  </outline>
</glyph>
<glyph name="p" format="2">
  <advance width="568"/>
  <unicode hex="0070"/>
  <anchor x="282" y="0" name="bottom"/>
  <anchor x="282" y="484" name="top"/>
  <outline>
    <contour>
      <point x="85" y="-180" type="line"/>
      <point x="127" y="-180" type="line"/>
      <point x="127" y="126" type="line"/>
      <point x="116" y="126" type="line"/>
      <point x="138" y="44"/>
      <point x="207" y="-8"/>
      <point x="300" y="-8" type="curve" smooth="yes"/>
      <point x="432" y="-8"/>
      <point x="515" y="89"/>
      <point x="515" y="242" type="curve" smooth="yes"/>
      <point x="515" y="395"/>
      <point x="431" y="492"/>
      <point x="300" y="492" type="curve" smooth="yes"/>
      <point x="207" y="492"/>
      <point x="138" y="440"/>
      <point x="116" y="358" type="curve"/>
      <point x="127" y="358" type="line"/>
      <point x="127" y="484" type="line"/>
      <point x="85" y="484" type="line"/>
    </contour>
    <contour>
      <point x="299" y="31" type="curve" smooth="yes"/>
      <point x="193" y="31"/>
      <point x="126" y="109"/>
      <point x="126" y="242" type="curve" smooth="yes"/>
      <point x="126" y="375"/>
      <point x="193" y="453"/>
      <point x="299" y="453" type="curve" smooth="yes"/>
      <point x="405" y="453"/>
      <point x="472" y="375"/>
      <point x="472" y="242" type="curve" smooth="yes"/>
      <point x="472" y="109"/>
      <point x="405" y="31"/>
    </contour>
  </outline>
</glyph>
<glyph name="s" format="2">
  <advance width="475"/>
  <unicode hex="0073"/>
  <anchor x="236" y="0" name="bottom"/>
  <anchor x="246" y="484" name="top"/>
  <outline>
    <contour>
      <point x="236" y="-8" type="curve" smooth="yes"/>
      <point x="346" y="-8"/>
      <point x="417" y="44"/>
      <point x="417" y="126" type="curve" smooth="yes"/>
      <point x="417" y="191"/>
      <point x="375" y="228"/>
      <point x="288" y="249" type="curve" smooth="yes"/>
      <point x="205" y="269" type="line" smooth="yes"/>
      <point x="143" y="284"/>
      <point x="117" y="310"/>
      <point x="117" y="356" type="curve" smooth="yes"/>
      <point x="117" y="415"/>
      <point x="164" y="453"/>
      <point x="246" y="453" type="curve" smooth="yes"/>
      <point x="300" y="453"/>
      <point x="349" y="433"/>
      <point x="388" y="393" type="curve"/>
      <point x="408" y="427" type="line"/>
      <point x="373" y="468"/>
      <point x="313" y="492"/>
      <point x="247" y="492" type="curve" smooth="yes"/>
      <point x="142" y="492"/>
      <point x="73" y="437"/>
      <point x="73" y="355" type="curve" smooth="yes"/>
      <point x="73" y="290"/>
      <point x="111" y="249"/>
      <point x="195" y="229" type="curve" smooth="yes"/>
      <point x="278" y="209" type="line" smooth="yes"/>
      <point x="344" y="193"/>
      <point x="373" y="169"/>
      <point x="373" y="124" type="curve" smooth="yes"/>
      <point x="373" y="66"/>
      <point x="326" y="31"/>
      <point x="239" y="31" type="curve" smooth="yes"/>
      <point x="181" y="31"/>
      <point x="125" y="48"/>
      <point x="77" y="90" type="curve"/>
      <point x="57" y="56" type="line"/>
      <point x="98" y="15"/>
      <point x="167" y="-8"/>
    </contour>
  </outline>
</glyph>
<glyph name="w" format="2">
  <advance width="830"/>
  <unicode hex="0077"/>
  <anchor x="415" y="0" name="bottom"/>
  <anchor x="415" y="484" name="top"/>
  <outline>
    <contour>
      <point x="210" y="0" type="line"/>
      <point x="260" y="0" type="line"/>
      <point x="432" y="477" type="line"/>
      <point x="401" y="477" type="line"/>
      <point x="570" y="0" type="line"/>
      <point x="619" y="0" type="line"/>
      <point x="791" y="484" type="line"/>
      <point x="746" y="484" type="line"/>
      <point x="581" y="13" type="line"/>
      <point x="607" y="13" type="line"/>
      <point x="442" y="484" type="line"/>
      <point x="390" y="484" type="line"/>
      <point x="221" y="13" type="line"/>
      <point x="247" y="13" type="line"/>
      <point x="86" y="484" type="line"/>
      <point x="40" y="484" type="line"/>
    </contour>
  </outline>
</glyph>
<glyph name="z" format="2">
  <advance width="454"/>
  <unicode hex="007A"/>
  <anchor x="235" y="0" name="bottom"/>
  <anchor x="235" y="484" name="top"/>
  <outline>
    <contour>
      <point x="60" y="0" type="line"/>
      <point x="421" y="0" type="line"/>
      <point x="421" y="36" type="line"/>
      <point x="100" y="36" type="line"/>
      <point x="100" y="22" type="line"/>
      <point x="410" y="454" type="line"/>
      <point x="410" y="484" type="line"/>
      <point x="60" y="484" type="line"/>
      <point x="60" y="448" type="line"/>
      <point x="369" y="448" type="line"/>
      <point x="369" y="461" type="line"/>
      <point x="60" y="30" type="line"/>
    </contour>
  </outline>
</glyph>
<glyph name="exclamdown" format="2">
  <advance width="211"/>
  <unicode hex="00A1"/>
  <outline>
    <contour>
      <point x="79" y="-180" type="line"/>
      <point x="132" y="-180" type="line"/>
      <point x="119" y="323" type="line"/>
      <point x="92" y="323" type="line"/>
    </contour>
    <contour>
      <point x="71" y="414" type="line"/>
      <point x="140" y="414" type="line"/>
      <point x="140" y="484" type="line"/>
      <point x="71" y="484" type="line"/>
    </contour>
  </outline>
</glyph>
<glyph name="ae" format="2">
  <advance width="857"/>
  <unicode hex="00E6"/>
  <anchor x="416" y="0" name="bottom"/>
  <anchor x="416" y="484" name="top"/>
  <outline>
    <contour>
      <point x="233" y="-8" type="curve" smooth="yes"/>
      <point x="335" y="-8"/>
      <point x="406" y="57"/>
      <point x="422" y="160" type="curve"/>
      <point x="404" y="160" type="line"/>
      <point x="430" y="50"/>
      <point x="508" y="-8"/>
      <point x="624" y="-8" type="curve" smooth="yes"/>
      <point x="689" y="-8"/>
      <point x="760" y="18"/>
      <point x="801" y="60" type="curve"/>
      <point x="781" y="94" type="line"/>
      <point x="729" y="50"/>
      <point x="679" y="31"/>
      <point x="620" y="31" type="curve" smooth="yes"/>
      <point x="502" y="31"/>
      <point x="437" y="109"/>
      <point x="437" y="243" type="curve" smooth="yes"/>
      <point x="437" y="250" type="line" smooth="yes"/>
      <point x="437" y="373"/>
      <point x="505" y="454"/>
      <point x="612" y="454" type="curve" smooth="yes"/>
      <point x="716" y="454"/>
      <point x="770" y="380"/>
      <point x="770" y="263" type="curve"/>
      <point x="786" y="274" type="line"/>
      <point x="428" y="274" type="line"/>
      <point x="428" y="237" type="line"/>
      <point x="809" y="237" type="line"/>
      <point x="809" y="260" type="line" smooth="yes"/>
      <point x="809" y="405"/>
      <point x="736" y="492"/>
      <point x="616" y="492" type="curve" smooth="yes"/>
      <point x="520" y="492"/>
      <point x="449" y="443"/>
      <point x="416" y="354" type="curve"/>
      <point x="436" y="354" type="line"/>
      <point x="423" y="444"/>
      <point x="372" y="492"/>
      <point x="271" y="492" type="curve" smooth="yes"/>
      <point x="204" y="492"/>
      <point x="135" y="470"/>
      <point x="84" y="434" type="curve"/>
      <point x="104" y="399" type="line"/>
      <point x="161" y="438"/>
      <point x="211" y="453"/>
      <point x="273" y="453" type="curve" smooth="yes"/>
      <point x="355" y="453"/>
      <point x="394" y="411"/>
      <point x="394" y="312" type="curve" smooth="yes"/>
      <point x="394" y="208" type="line" smooth="yes"/>
      <point x="394" y="105"/>
      <point x="331" y="30"/>
      <point x="236" y="30" type="curve" smooth="yes"/>
      <point x="158" y="30"/>
      <point x="110" y="75"/>
      <point x="110" y="139" type="curve" smooth="yes"/>
      <point x="110" y="217"/>
      <point x="163" y="237"/>
      <point x="361" y="237" type="curve" smooth="yes"/>
      <point x="404" y="237" type="line"/>
      <point x="404" y="274" type="line"/>
      <point x="359" y="274" type="line" smooth="yes"/>
      <point x="136" y="274"/>
      <point x="64" y="243"/>
      <point x="64" y="135" type="curve" smooth="yes"/>
      <point x="64" y="55"/>
      <point x="137" y="-8"/>
    </contour>
  </outline>
</glyph>
<glyph name="eth" format="2">
  <advance width="541"/>
  <unicode hex="00F0"/>
  <outline>
    <contour>
      <point x="269" y="-8" type="curve" smooth="yes"/>
      <point x="413" y="-8"/>
      <point x="488" y="90"/>
      <point x="488" y="281" type="curve" smooth="yes"/>
      <point x="488" y="442"/>
      <point x="431" y="560"/>
      <point x="320" y="637" type="curve"/>
      <point x="317" y="627" type="line"/>
      <point x="436" y="677" type="line"/>
      <point x="422" y="710" type="line"/>
      <point x="284" y="652" type="line"/>
      <point x="299" y="651" type="line"/>
      <point x="263" y="674"/>
      <point x="216" y="694"/>
      <point x="165" y="710" type="curve"/>
      <point x="153" y="677" type="line"/>
      <point x="193" y="665"/>
      <point x="229" y="650"/>
      <point x="260" y="632" type="curve"/>
      <point x="260" y="642" type="line"/>
      <point x="120" y="583" type="line"/>
      <point x="134" y="550" type="line"/>
      <point x="305" y="622" type="line"/>
      <point x="280" y="620" type="line"/>
      <point x="392" y="549"/>
      <point x="447" y="434"/>
      <point x="446" y="286" type="curve"/>
      <point x="465" y="286" type="line"/>
      <point x="440" y="399"/>
      <point x="374" y="454"/>
      <point x="272" y="454" type="curve" smooth="yes"/>
      <point x="140" y="454"/>
      <point x="53" y="363"/>
      <point x="53" y="223" type="curve" smooth="yes"/>
      <point x="53" y="83"/>
      <point x="138" y="-8"/>
    </contour>
    <contour>
      <point x="268" y="31" type="curve" smooth="yes"/>
      <point x="160" y="31"/>
      <point x="96" y="101"/>
      <point x="96" y="223" type="curve" smooth="yes"/>
      <point x="96" y="342"/>
      <point x="162" y="415"/>
      <point x="269" y="415" type="curve" smooth="yes"/>
      <point x="376" y="415"/>
      <point x="442" y="342"/>
      <point x="442" y="223" type="curve" smooth="yes"/>
      <point x="442" y="104"/>
      <point x="375" y="31"/>
    </contour>
  </outline>
</glyph>
<glyph name="OE" format="2">
  <advance width="1038"/>
  <unicode hex="0152"/>
  <anchor x="585" y="0" name="bottom"/>
  <anchor x="585" y="705" name="top"/>
  <outline>
    <contour>
      <point x="412" y="0" type="curve" smooth="yes"/>
      <point x="988" y="0" type="line"/>
      <point x="988" y="39" type="line"/>
      <point x="606" y="39" type="line"/>
      <point x="606" y="338" type="line"/>
      <point x="968" y="338" type="line"/>
      <point x="968" y="377" type="line"/>
      <point x="606" y="377" type="line"/>
      <point x="606" y="666" type="line"/>
      <point x="988" y="666" type="line"/>
      <point x="988" y="705" type="line"/>
      <point x="412" y="705" type="line" smooth="yes"/>
      <point x="191" y="705"/>
      <point x="67" y="583"/>
      <point x="67" y="353" type="curve" smooth="yes"/>
      <point x="67" y="123"/>
      <point x="191" y="0"/>
    </contour>
    <contour>
      <point x="416" y="39" type="line" smooth="yes"/>
      <point x="213" y="39"/>
      <point x="112" y="145"/>
      <point x="112" y="353" type="curve" smooth="yes"/>
      <point x="112" y="561"/>
      <point x="213" y="666"/>
      <point x="416" y="666" type="curve" smooth="yes"/>
      <point x="564" y="666" type="line"/>
      <point x="564" y="39" type="line"/>
    </contour>
  </outline>
</glyph>
<glyph name="florin" format="2">
  <advance width="600"/>
  <unicode hex="0192"/>
  <outline>
    <contour>
      <point x="49" y="-188" type="line"/>
      <point x="88" y="-188" type="line" smooth="yes"/>
      <point x="186" y="-188"/>
      <point x="236" y="-134"/>
      <point x="257" y="-38" type="curve" smooth="yes"/>
      <point x="362" y="453" type="line"/>
      <point x="346" y="448" type="line"/>
      <point x="500" y="448" type="line"/>
      <point x="500" y="484" type="line"/>
      <point x="357" y="484" type="line"/>
      <point x="366" y="472" type="line"/>
      <point x="384" y="558" type="line" smooth="yes"/>
      <point x="403" y="648"/>
      <point x="443" y="674"/>
      <point x="511" y="674" type="curve" smooth="yes"/>
      <point x="549" y="674" type="line"/>
      <point x="549" y="713" type="line"/>
      <point x="511" y="713" type="line" smooth="yes"/>
      <point x="412" y="713"/>
      <point x="362" y="659"/>
      <point x="342" y="562" type="curve" smooth="yes"/>
      <point x="323" y="472" type="line"/>
      <point x="333" y="484" type="line"/>
      <point x="187" y="484" type="line"/>
      <point x="187" y="448" type="line"/>
      <point x="328" y="448" type="line"/>
      <point x="318" y="451" type="line"/>
      <point x="215" y="-34" type="line" smooth="yes"/>
      <point x="196" y="-122"/>
      <point x="155" y="-151"/>
      <point x="88" y="-151" type="curve" smooth="yes"/>
      <point x="49" y="-151" type="line"/>
    </contour>
  </outline>
</glyph>
<glyph name="yhook" format="2">
  <advance width="534"/>
  <unicode hex="01B4"/>
  <guideline x="275" y="0" angle="71"/>
  <guideline x="228" y="0" angle="71"/>
  <outline>
    <contour>
      <point x="401" y="402" type="curve" smooth="yes"/>
      <point x="240" y="15" type="line"/>
      <point x="264" y="15" type="line"/>
      <point x="70" y="484" type="line"/>
      <point x="22" y="484" type="line"/>
      <point x="233" y="-13" type="line"/>
      <point x="233" y="7" type="line"/>
      <point x="152" y="-180" type="line"/>
      <point x="199" y="-180" type="line"/>
      <point x="435" y="372" type="line" smooth="yes"/>
      <point x="462" y="435"/>
      <point x="483" y="454"/>
      <point x="527" y="454" type="curve" smooth="yes"/>
      <point x="538" y="454"/>
      <point x="553" y="452"/>
      <point x="564" y="448" type="curve"/>
      <point x="571" y="485" type="line"/>
      <point x="555" y="490"/>
      <point x="543" y="492"/>
      <point x="522" y="492" type="curve" smooth="yes"/>
      <point x="462" y="492"/>
      <point x="427" y="464"/>
    </contour>
  </outline>
</glyph>
<glyph name="commaturnedmod" format="2">
  <advance width="500"/>
  <unicode hex="02BB"/>
  <anchor x="250" y="484" name="_top"/>
  <anchor x="250" y="685" name="top"/>
  <outline>
    <contour>
      <point x="215" y="570" type="line"/>
      <point x="284" y="570" type="line"/>
      <point x="284" y="640" type="line"/>
      <point x="233" y="640" type="line"/>
      <point x="252" y="634" type="line"/>
      <point x="252" y="660"/>
      <point x="256" y="686"/>
      <point x="285" y="718" type="curve"/>
      <point x="259" y="738" type="line"/>
      <point x="225" y="705"/>
      <point x="215" y="667"/>
      <point x="215" y="625" type="curve" smooth="yes"/>
    </contour>
  </outline>
</glyph>
<glyph name="verticallinemod" format="2">
  <advance width="500"/>
  <unicode hex="02C8"/>
  <outline>
    <contour>
      <point x="229" y="596" type="line"/>
      <point x="271" y="596" type="line"/>
      <point x="271" y="794" type="line"/>
      <point x="229" y="794" type="line"/>
    </contour>
  </outline>
</glyph>
<glyph name="brevecomb" format="2">
  <unicode hex="0306"/>
  <anchor x="0" y="484" name="_top"/>
  <anchor x="0" y="685" name="top"/>
  <outline>
    <contour>
      <point x="0" y="547" type="curve" smooth="yes"/>
      <point x="83" y="547"/>
      <point x="137" y="617"/>
      <point x="144" y="734" type="curve"/>
      <point x="111" y="738" type="line"/>
      <point x="106" y="639"/>
      <point x="66" y="583"/>
      <point x="0" y="583" type="curve" smooth="yes"/>
      <point x="-66" y="583"/>
      <point x="-106" y="639"/>
      <point x="-111" y="738" type="curve"/>
      <point x="-144" y="734" type="line"/>
      <point x="-137" y="617"/>
      <point x="-83" y="547"/>
    </contour>
  </outline>
</glyph>
<glyph name="caroncomb" format="2">
  <unicode hex="030C"/>
  <anchor x="0" y="484" name="_top"/>
  <anchor x="0" y="685" name="top"/>
  <outline>
    <contour>
      <point x="-24" y="549" type="line"/>
      <point x="24" y="549" type="line"/>
      <point x="133" y="749" type="line"/>
      <point x="98" y="749" type="line"/>
      <point x="0" y="588" type="line"/>
      <point x="-98" y="749" type="line"/>
      <point x="-133" y="749" type="line"/>
    </contour>
  </outline>
</glyph>
<glyph name="ogonekcomb" format="2">
  <unicode hex="0328"/>
  <anchor x="0" y="0" name="_ogonek"/>
  <outline>
    <contour>
      <point x="-17" y="-190" type="curve" smooth="yes"/>
      <point x="14" y="-190"/>
      <point x="40" y="-183"/>
      <point x="54" y="-173" type="curve"/>
      <point x="41" y="-141" type="line"/>
      <point x="22" y="-150"/>
      <point x="5" y="-154"/>
      <point x="-12" y="-154" type="curve" smooth="yes"/>
      <point x="-45" y="-154"/>
      <point x="-72" y="-136"/>
      <point x="-72" y="-94" type="curve" smooth="yes"/>
      <point x="-72" y="-46"/>
      <point x="-30" y="-13"/>
      <point x="0" y="0" type="curve"/>
      <point x="-21" y="31" type="line"/>
      <point x="-78" y="1"/>
      <point x="-111" y="-48"/>
      <point x="-111" y="-98" type="curve" smooth="yes"/>
      <point x="-111" y="-154"/>
      <point x="-72" y="-190"/>
    </contour>
  </outline>
</glyph>
<glyph name="slashshortcomb" format="2">
  <unicode hex="0337"/>
  <anchor x="0" y="357" name="_center"/>
  <outline>
    <contour>
      <point x="-104" y="274" type="line"/>
      <point x="124" y="407" type="line"/>
      <point x="104" y="440" type="line"/>
      <point x="-124" y="307" type="line"/>
    </contour>
  </outline>
</glyph>
<glyph name="Lje-cy" format="2">
  <advance width="1126"/>
  <unicode hex="0409"/>
  <outline>
    <contour>
      <point x="37" y="-13" type="line"/>
      <point x="166" y="51"/>
      <point x="235" y="169"/>
      <point x="235" y="485" type="curve" smooth="yes"/>
      <point x="235" y="666" type="line"/>
      <point x="573" y="666" type="line"/>
      <point x="573" y="0" type="line"/>
      <point x="844" y="0" type="line" smooth="yes"/>
      <point x="990" y="0"/>
      <point x="1072" y="64"/>
      <point x="1072" y="191" type="curve" smooth="yes"/>
      <point x="1072" y="318"/>
      <point x="990" y="379"/>
      <point x="844" y="379" type="curve" smooth="yes"/>
      <point x="615" y="379" type="line"/>
      <point x="615" y="705" type="line"/>
      <point x="195" y="705" type="line"/>
      <point x="195" y="495" type="line" smooth="yes"/>
      <point x="195" y="160"/>
      <point x="123" y="78"/>
      <point x="20" y="25" type="curve"/>
    </contour>
    <contour>
      <point x="615" y="39" type="line"/>
      <point x="615" y="340" type="line"/>
      <point x="843" y="340" type="line" smooth="yes"/>
      <point x="966" y="340"/>
      <point x="1028" y="292"/>
      <point x="1028" y="190" type="curve" smooth="yes"/>
      <point x="1028" y="88"/>
      <point x="966" y="39"/>
      <point x="843" y="39" type="curve" smooth="yes"/>
    </contour>
  </outline>
</glyph>
<glyph name="Pe-cy" format="2">
  <advance width="746"/>
  <unicode hex="041F"/>
  <anchor x="608" y="0" name="bottomright"/>
  <outline>
    <contour>
      <point x="96" y="0" type="line"/>
      <point x="138" y="0" type="line"/>
      <point x="138" y="666" type="line"/>
      <point x="608" y="666" type="line"/>
      <point x="608" y="0" type="line"/>
      <point x="650" y="0" type="line"/>
      <point x="650" y="705" type="line"/>
      <point x="96" y="705" type="line"/>
    </contour>
  </outline>
</glyph>
<glyph name="U-cy" format="2">
  <advance width="628"/>
  <unicode hex="0423"/>
  <anchor x="315" y="705" name="top"/>
  <outline>
    <contour>
      <point x="213" y="0" type="line"/>
      <point x="259" y="0" type="line"/>
      <point x="623" y="705" type="line"/>
      <point x="578" y="705" type="line"/>
      <point x="338" y="240" type="line"/>
      <point x="350" y="240" type="line"/>
      <point x="57" y="705" type="line"/>
      <point x="10" y="705" type="line"/>
      <point x="329" y="198" type="line"/>
      <point x="329" y="223" type="line"/>
    </contour>
  </outline>
</glyph>
<glyph name="ii-cy" format="2">
  <advance width="566"/>
  <unicode hex="0438"/>
  <anchor x="439" y="0" name="bottomright"/>
  <anchor x="283" y="484" name="top"/>
  <outline>
    <contour>
      <point x="88" y="0" type="line"/>
      <point x="126" y="0" type="line"/>
      <point x="463" y="452" type="line"/>
      <point x="439" y="452" type="line"/>
      <point x="439" y="0" type="line"/>
      <point x="478" y="0" type="line"/>
      <point x="478" y="484" type="line"/>
      <point x="440" y="484" type="line"/>
      <point x="103" y="32" type="line"/>
      <point x="127" y="32" type="line"/>
      <point x="127" y="484" type="line"/>
      <point x="88" y="484" type="line"/>
    </contour>
  </outline>
</glyph>
<glyph name="sha-cy" format="2">
  <advance width="770"/>
  <unicode hex="0448"/>
  <outline>
    <contour>
      <point x="88" y="0" type="line"/>
      <point x="682" y="0" type="line"/>
      <point x="682" y="484" type="line"/>
      <point x="640" y="484" type="line"/>
      <point x="640" y="36" type="line"/>
      <point x="406" y="36" type="line"/>
      <point x="406" y="484" type="line"/>
      <point x="364" y="484" type="line"/>
      <point x="364" y="36" type="line"/>
      <point x="130" y="36" type="line"/>
      <point x="130" y="484" type="line"/>
      <point x="88" y="484" type="line"/>
    </contour>
  </outline>
</glyph>
<glyph name="shcha-cy" format="2">
  <advance width="790"/>
  <unicode hex="0449"/>
  <outline>
    <contour>
      <point x="718" y="-130" type="line"/>
      <point x="756" y="-130" type="line"/>
      <point x="756" y="36" type="line"/>
      <point x="682" y="36" type="line"/>
      <point x="682" y="484" type="line"/>
      <point x="640" y="484" type="line"/>
      <point x="640" y="36" type="line"/>
      <point x="406" y="36" type="line"/>
      <point x="406" y="484" type="line"/>
      <point x="364" y="484" type="line"/>
      <point x="364" y="36" type="line"/>
      <point x="130" y="36" type="line"/>
      <point x="130" y="484" type="line"/>
      <point x="88" y="484" type="line"/>
      <point x="88" y="0" type="line"/>
      <point x="718" y="0" type="line"/>
    </contour>
  </outline>
</glyph>
<glyph name="ereversed-cy" format="2">
  <advance width="471"/>
  <unicode hex="044D"/>
  <anchor x="207" y="484" name="top"/>
  <outline>
    <contour>
      <point x="194" y="-8" type="curve" smooth="yes"/>
      <point x="332" y="-8"/>
      <point x="415" y="92"/>
      <point x="415" y="246" type="curve" smooth="yes"/>
      <point x="415" y="398"/>
      <point x="333" y="492"/>
      <point x="196" y="492" type="curve" smooth="yes"/>
      <point x="133" y="492"/>
      <point x="65" y="466"/>
      <point x="28" y="426" type="curve"/>
      <point x="48" y="390" type="line"/>
      <point x="87" y="433"/>
      <point x="146" y="453"/>
      <point x="195" y="453" type="curve" smooth="yes"/>
      <point x="321" y="453"/>
      <point x="370" y="360"/>
      <point x="372" y="257" type="curve"/>
      <point x="381" y="266" type="line"/>
      <point x="112" y="266" type="line"/>
      <point x="112" y="230" type="line"/>
      <point x="381" y="230" type="line"/>
      <point x="372" y="240" type="line"/>
      <point x="370" y="110"/>
      <point x="309" y="31"/>
      <point x="195" y="31" type="curve" smooth="yes"/>
      <point x="144" y="31"/>
      <point x="87" y="52"/>
      <point x="48" y="94" type="curve"/>
      <point x="28" y="58" type="line"/>
      <point x="58" y="18"/>
      <point x="132" y="-8"/>
    </contour>
  </outline>
</glyph>
<glyph name="zedescender-cy" format="2">
  <advance width="477"/>
  <unicode hex="0499"/>
  <outline>
    <contour>
      <point x="217" y="-130" type="line"/>
      <point x="257" y="-130" type="line"/>
      <point x="257" y="-7" type="line"/>
      <point x="370" y="0"/>
      <point x="424" y="54"/>
      <point x="424" y="132" type="curve" smooth="yes"/>
      <point x="424" y="194"/>
      <point x="379" y="241"/>
      <point x="313" y="251" type="curve"/>
      <point x="314" y="244" type="line"/>
      <point x="371" y="258"/>
      <point x="408" y="301"/>
      <point x="408" y="356" type="curve" smooth="yes"/>
      <point x="408" y="441"/>
      <point x="354" y="492"/>
      <point x="238" y="492" type="curve" smooth="yes"/>
      <point x="163" y="492"/>
      <point x="98" y="472"/>
      <point x="44" y="430" type="curve"/>
      <point x="64" y="394" type="line"/>
      <point x="117" y="436"/>
      <point x="171" y="453"/>
      <point x="238" y="453" type="curve" smooth="yes"/>
      <point x="324" y="453"/>
      <point x="365" y="414"/>
      <point x="365" y="356" type="curve" smooth="yes"/>
      <point x="365" y="298"/>
      <point x="320" y="264"/>
      <point x="253" y="264" type="curve" smooth="yes"/>
      <point x="160" y="264" type="line"/>
      <point x="160" y="228" type="line"/>
      <point x="261" y="228" type="line" smooth="yes"/>
      <point x="337" y="228"/>
      <point x="380" y="194"/>
      <point x="380" y="132" type="curve" smooth="yes"/>
      <point x="380" y="68"/>
      <point x="338" y="31"/>
      <point x="231" y="31" type="curve" smooth="yes"/>
      <point x="162" y="31"/>
      <point x="102" y="51"/>
      <point x="56" y="94" type="curve"/>
      <point x="36" y="58" type="line"/>
      <point x="74" y="19"/>
      <point x="142" y="-5"/>
      <point x="217" y="-8" type="curve"/>
    </contour>
  </outline>
</glyph>
<glyph name="Enghe-cy" format="2">
  <advance width="927"/>
  <unicode hex="04A4"/>
  <outline>
    <contour>
      <point x="96" y="0" type="line"/>
      <point x="138" y="0" type="line"/>
      <point x="138" y="338" type="line"/>
      <point x="613" y="338" type="line"/>
      <point x="613" y="0" type="line"/>
      <point x="655" y="0" type="line"/>
      <point x="655" y="666" type="line"/>
      <point x="924" y="666" type="line"/>
      <point x="924" y="705" type="line"/>
      <point x="613" y="705" type="line"/>
      <point x="613" y="377" type="line"/>
      <point x="138" y="377" type="line"/>
      <point x="138" y="705" type="line"/>
      <point x="96" y="705" type="line"/>
    </contour>
  </outline>
</glyph>
<glyph name="ustraight-cy" format="2">
  <advance width="510"/>
  <unicode hex="04AF"/>
  <anchor x="255" y="-25" name="center"/>
  <outline>
    <contour>
      <point x="234" y="-180" type="line"/>
      <point x="276" y="-180" type="line"/>
      <point x="276" y="-7" type="line"/>
      <point x="485" y="484" type="line"/>
      <point x="438" y="484" type="line"/>
      <point x="243" y="15" type="line"/>
      <point x="267" y="15" type="line"/>
      <point x="73" y="484" type="line"/>
      <point x="25" y="484" type="line"/>
      <point x="234" y="-7" type="line"/>
    </contour>
  </outline>
</glyph>
<glyph name="quoteleft" format="2">
  <advance width="211"/>
  <unicode hex="2018"/>
  <outline>
    <contour>
      <point x="71" y="542" type="line"/>
      <point x="140" y="542" type="line"/>
      <point x="140" y="612" type="line"/>
      <point x="90" y="612" type="line"/>
      <point x="108" y="606" type="line"/>
      <point x="108" y="632"/>
      <point x="113" y="657"/>
      <point x="142" y="690" type="curve"/>
      <point x="115" y="710" type="line"/>
      <point x="82" y="676"/>
      <point x="71" y="639"/>
      <point x="71" y="596" type="curve" smooth="yes"/>
    </contour>
  </outline>
</glyph>
<glyph name="quoteright" format="2">
  <advance width="211"/>
  <unicode hex="2019"/>
  <outline>
    <contour>
      <point x="97" y="537" type="line"/>
      <point x="131" y="570"/>
      <point x="141" y="608"/>
      <point x="141" y="650" type="curve" smooth="yes"/>
      <point x="141" y="705" type="line"/>
      <point x="72" y="705" type="line"/>
      <point x="72" y="635" type="line"/>
      <point x="123" y="635" type="line"/>
      <point x="104" y="641" type="line"/>
      <point x="104" y="615"/>
      <point x="100" y="589"/>
      <point x="71" y="557" type="curve"/>
    </contour>
  </outline>
</glyph>
<glyph name="peso" format="2">
  <advance width="600"/>
  <unicode hex="20B1"/>
  <outline>
    <contour>
      <point x="115" y="0" type="line"/>
      <point x="157" y="0" type="line"/>
      <point x="157" y="265" type="line"/>
      <point x="271" y="265" type="line" smooth="yes"/>
      <point x="383" y="265"/>
      <point x="462" y="314"/>
      <point x="489" y="400" type="curve"/>
      <point x="475" y="391" type="line"/>
      <point x="586" y="391" type="line"/>
      <point x="586" y="428" type="line"/>
      <point x="482" y="428" type="line"/>
      <point x="495" y="420" type="line"/>
      <point x="504" y="459"/>
      <point x="504" y="505"/>
      <point x="496" y="546" type="curve"/>
      <point x="481" y="542" type="line"/>
      <point x="586" y="542" type="line"/>
      <point x="586" y="578" type="line"/>
      <point x="474" y="578" type="line"/>
      <point x="491" y="569" type="line"/>
      <point x="464" y="659"/>
      <point x="389" y="705"/>
      <point x="271" y="705" type="curve" smooth="yes"/>
      <point x="115" y="705" type="line"/>
      <point x="115" y="578" type="line"/>
      <point x="14" y="578" type="line"/>
      <point x="14" y="542" type="line"/>
      <point x="115" y="542" type="line"/>
      <point x="115" y="428" type="line"/>
      <point x="14" y="428" type="line"/>
      <point x="14" y="391" type="line"/>
      <point x="115" y="391" type="line"/>
    </contour>
    <contour>
      <point x="157" y="304" type="line"/>
      <point x="157" y="666" type="line"/>
      <point x="269" y="666" type="line" smooth="yes"/>
      <point x="399" y="666"/>
      <point x="460" y="608"/>
      <point x="460" y="486" type="curve" smooth="yes"/>
      <point x="460" y="365"/>
      <point x="397" y="304"/>
      <point x="269" y="304" type="curve" smooth="yes"/>
    </contour>
  </outline>
</glyph>
<glyph name="tenge" format="2">
  <advance width="600"/>
  <unicode hex="20B8"/>
  <outline>
    <contour>
      <point x="279" y="0" type="line"/>
      <point x="321" y="0" type="line"/>
      <point x="321" y="519" type="line"/>
      <point x="580" y="519" type="line"/>
      <point x="580" y="555" type="line"/>
      <point x="20" y="555" type="line"/>
      <point x="20" y="519" type="line"/>
      <point x="279" y="519" type="line"/>
    </contour>
    <contour>
      <point x="20" y="669" type="line"/>
      <point x="580" y="669" type="line"/>
      <point x="580" y="705" type="line"/>
      <point x="20" y="705" type="line"/>
    </contour>
  </outline>
</glyph>
<glyph name="divisionslash" format="2">
  <advance width="600"/>
  <unicode hex="2215"/>
  <outline>
    <contour>
      <point x="192" y="-55" type="line"/>
      <point x="446" y="733" type="line"/>
      <point x="408" y="744" type="line"/>
      <point x="154" y="-44" type="line"/>
    </contour>
  </outline>
</glyph>
<glyph name="notequal" format="2">
  <advance width="600"/>
  <unicode hex="2260"/>
  <outline>
    <contour>
      <point x="207" y="29" type="line"/>
      <point x="265" y="168" type="line"/>
      <point x="544" y="168" type="line"/>
      <point x="544" y="207" type="line"/>
      <point x="281" y="207" type="line"/>
      <point x="346" y="367" type="line"/>
      <point x="544" y="367" type="line"/>
      <point x="544" y="406" type="line"/>
      <point x="364" y="406" type="line"/>
      <point x="414" y="530" type="line"/>
      <point x="379" y="545" type="line"/>
      <point x="321" y="406" type="line"/>
      <point x="56" y="406" type="line"/>
      <point x="56" y="367" type="line"/>
      <point x="305" y="367" type="line"/>
      <point x="238" y="207" type="line"/>
      <point x="56" y="207" type="line"/>
      <point x="56" y="168" type="line"/>
      <point x="222" y="168" type="line"/>
      <point x="172" y="46" type="line"/>
    </contour>
  </outline>
</glyph>
<glyph name="lozenge" format="2">
  <advance width="600"/>
  <unicode hex="25CA"/>
  <outline>
    <contour>
      <point x="282" y="-200" type="line"/>
      <point x="318" y="-200" type="line"/>
      <point x="549" y="279" type="line"/>
      <point x="318" y="758" type="line"/>
      <point x="282" y="758" type="line"/>
      <point x="51" y="279" type="line"/>
    </contour>
    <contour>
      <point x="300" y="-152" type="line"/>
      <point x="93" y="279" type="line"/>
      <point x="300" y="710" type="line"/>
      <point x="507" y="279" type="line"/>
    </contour>
  </outline>
</glyph>
<glyph name="__descender-cy" format="2">
  <anchor x="0" y="0" name="_bottomright"/>
  <outline>
    <contour>
      <point x="76" y="-130" type="line"/>
      <point x="116" y="-130" type="line"/>
      <point x="116" y="37" type="line"/>
      <point x="0" y="37" type="line"/>
      <point x="0" y="0" type="line"/>
      <point x="76" y="0" type="line"/>
    </contour>
  </outline>
</glyph>
<glyph name="_part.oslash" format="2">
  <advance width="538"/>
  <anchor x="269" y="242" name="center"/>
  <outline>
    <contour>
      <point x="269" y="-8" type="curve" smooth="yes"/>
      <point x="401" y="-8"/>
      <point x="485" y="90"/>
      <point x="485" y="242" type="curve" smooth="yes"/>
      <point x="485" y="394"/>
      <point x="401" y="492"/>
      <point x="269" y="492" type="curve" smooth="yes"/>
      <point x="137" y="492"/>
      <point x="53" y="394"/>
      <point x="53" y="242" type="curve" smooth="yes"/>
      <point x="53" y="90"/>
      <point x="137" y="-8"/>
    </contour>
    <contour>
      <point x="269" y="31" type="curve" smooth="yes"/>
      <point x="163" y="31"/>
      <point x="96" y="109"/>
      <point x="96" y="242" type="curve" smooth="yes"/>
      <point x="96" y="375"/>
      <point x="163" y="453"/>
      <point x="269" y="453" type="curve" smooth="yes"/>
      <point x="375" y="453"/>
      <point x="442" y="375"/>
      <point x="442" y="242" type="curve" smooth="yes"/>
      <point x="442" y="109"/>
      <point x="375" y="31"/>
    </contour>
  </outline>
</glyph>
<glyph name="brevecomb-cy" format="2">
  <anchor x="0" y="484" name="_top"/>
  <outline>
    <contour>
      <point x="0" y="547" type="curve" smooth="yes"/>
      <point x="63" y="547"/>
      <point x="126" y="573"/>
      <point x="168" y="671" type="curve"/>
      <point x="136" y="684" type="line"/>
      <point x="98" y="607"/>
      <point x="61" y="583"/>
      <point x="0" y="583" type="curve" smooth="yes"/>
      <point x="-60" y="583"/>
      <point x="-103" y="615"/>
      <point x="-128" y="685" type="curve"/>
      <point x="-161" y="671" type="line"/>
      <point x="-130" y="580"/>
      <point x="-62" y="547"/>
    </contour>
  </outline>
</glyph>
<glyph name="brevecomb_hookabovecomb.case" format="2">
  <anchor x="0" y="705" name="_top"/>
  <outline>
    <contour>
      <point x="0" y="760" type="curve" smooth="yes"/>
      <point x="83" y="760"/>
      <point x="137" y="816"/>
      <point x="144" y="907" type="curve"/>
      <point x="111" y="911" type="line"/>
      <point x="106" y="838"/>
      <point x="66" y="796"/>
      <point x="0" y="796" type="curve" smooth="yes"/>
      <point x="-66" y="796"/>
      <point x="-106" y="838"/>
      <point x="-111" y="911" type="curve"/>
      <point x="-144" y="907" type="line"/>
      <point x="-137" y="815"/>
      <point x="-83" y="760"/>
    </contour>
    <contour>
      <point x="-17" y="863" type="curve"/>
      <point x="17" y="863" type="line"/>
      <point x="17" y="914"/>
      <point x="89" y="909"/>
      <point x="89" y="965" type="curve" smooth="yes"/>
      <point x="89" y="997"/>
      <point x="58" y="1017"/>
      <point x="2" y="1017" type="curve" smooth="yes"/>
      <point x="-26" y="1017"/>
      <point x="-53" y="1012"/>
      <point x="-74" y="1001" type="curve"/>
      <point x="-65" y="972" type="line"/>
      <point x="-40" y="981"/>
      <point x="-20" y="984"/>
      <point x="-2" y="984" type="curve" smooth="yes"/>
      <point x="34" y="984"/>
      <point x="50" y="979"/>
      <point x="50" y="962" type="curve" smooth="yes"/>
      <point x="50" y="927"/>
      <point x="-17" y="928"/>
    </contour>
  </outline>
</glyph>
<glyph name="circumflexcomb.case" format="2">
  <anchor x="0" y="705" name="_top"/>
  <anchor x="0" y="865" name="top"/>
  <outline>
    <contour>
      <point x="-145" y="765" type="line"/>
      <point x="-108" y="765" type="line"/>
      <point x="0" y="897" type="line"/>
      <point x="108" y="765" type="line"/>
      <point x="145" y="765" type="line"/>
      <point x="24" y="935" type="line"/>
      <point x="-24" y="935" type="line"/>
    </contour>
  </outline>
</glyph>
<glyph name="circumflexcomb_gravecomb" format="2">
  <anchor x="0" y="484" name="_top"/>
  <outline>
    <contour>
      <point x="-133" y="549" type="line"/>
      <point x="-99" y="549" type="line"/>
      <point x="0" y="672" type="line"/>
      <point x="99" y="549" type="line"/>
      <point x="133" y="549" type="line"/>
      <point x="24" y="709" type="line"/>
      <point x="-24" y="709" type="line"/>
    </contour>
    <contour>
      <point x="122" y="650" type="line"/>
      <point x="158" y="650" type="line"/>
      <point x="70" y="800" type="line"/>
      <point x="16" y="800" type="line"/>
    </contour>
  </outline>
</glyph>
<glyph name="circumflexcomb_tildecomb" format="2">
  <anchor x="0" y="484" name="_top"/>
  <outline>
    <contour>
      <point x="-133" y="549" type="line"/>
      <point x="-99" y="549" type="line"/>
      <point x="0" y="645" type="line"/>
      <point x="99" y="549" type="line"/>
      <point x="133" y="549" type="line"/>
      <point x="24" y="679" type="line"/>
      <point x="-24" y="679" type="line"/>
    </contour>
    <contour>
      <point x="-113" y="705" type="line"/>
      <point x="-106" y="749"/>
      <point x="-93" y="767"/>
      <point x="-63" y="767" type="curve" smooth="yes"/>
      <point x="-44" y="767"/>
      <point x="-28" y="755"/>
      <point x="-14" y="744" type="curve" smooth="yes"/>
      <point x="20" y="717"/>
      <point x="39" y="707"/>
      <point x="64" y="707" type="curve" smooth="yes"/>
      <point x="110" y="707"/>
      <point x="141" y="739"/>
      <point x="146" y="803" type="curve"/>
      <point x="113" y="805" type="line"/>
      <point x="106" y="761"/>
      <point x="93" y="743"/>
      <point x="63" y="743" type="curve" smooth="yes"/>
      <point x="49" y="743"/>
      <point x="38" y="747"/>
      <point x="9" y="770" type="curve" smooth="yes"/>
      <point x="-19" y="792"/>
      <point x="-38" y="803"/>
      <point x="-63" y="803" type="curve" smooth="yes"/>
      <point x="-109" y="803"/>
      <point x="-140" y="771"/>
      <point x="-146" y="707" type="curve"/>
    </contour>
  </outline>
</glyph>
<glyph name="nine.tosf" format="2">
  <advance width="600"/>
  <outline>
    <contour>
      <point x="217" y="-188" type="curve" smooth="yes"/>
      <point x="386" y="-188"/>
      <point x="484" y="-53"/>
      <point x="484" y="174" type="curve" smooth="yes"/>
      <point x="484" y="368"/>
      <point x="397" y="492"/>
      <point x="237" y="492" type="curve" smooth="yes"/>
      <point x="111" y="492"/>
      <point x="22" y="399"/>
      <point x="22" y="272" type="curve" smooth="yes"/>
      <point x="22" y="145"/>
      <point x="109" y="54"/>
      <point x="237" y="54" type="curve" smooth="yes"/>
      <point x="352" y="54"/>
      <point x="439" y="133"/>
      <point x="449" y="256" type="curve"/>
      <point x="443" y="256" type="line"/>
      <point x="443" y="165" type="line" smooth="yes"/>
      <point x="443" y="-35"/>
      <point x="361" y="-149"/>
      <point x="218" y="-149" type="curve" smooth="yes"/>
      <point x="155" y="-149"/>
      <point x="93" y="-124"/>
      <point x="44" y="-74" type="curve"/>
      <point x="24" y="-108" type="line"/>
      <point x="67" y="-156"/>
      <point x="147" y="-188"/>
    </contour>
    <contour>
      <point x="241" y="93" type="curve" smooth="yes"/>
      <point x="137" y="93"/>
      <point x="65" y="167"/>
      <point x="65" y="273" type="curve" smooth="yes"/>
      <point x="65" y="379"/>
      <point x="137" y="453"/>
      <point x="241" y="453" type="curve" smooth="yes"/>
      <point x="345" y="453"/>
      <point x="417" y="379"/>
      <point x="417" y="273" type="curve" smooth="yes"/>
      <point x="417" y="167"/>
      <point x="345" y="93"/>
    </contour>
  </outline>
</glyph>
<glyph name="one.dnom" format="2">
  <advance width="380"/>
  <outline>
    <contour>
      <point x="105" y="0" type="line"/>
      <point x="313" y="0" type="line"/>
      <point x="313" y="37" type="line"/>
      <point x="233" y="37" type="line"/>
      <point x="233" y="423" type="line"/>
      <point x="200" y="423" type="line"/>
      <point x="93" y="351" type="line"/>
      <point x="115" y="320" type="line"/>
      <point x="215" y="388" type="line"/>
      <point x="195" y="388" type="line"/>
      <point x="195" y="37" type="line"/>
      <point x="105" y="37" type="line"/>
    </contour>
  </outline>
</glyph>
<glyph name="one.tosf" format="2">
  <advance width="600"/>
  <outline>
    <contour>
      <point x="55" y="0" type="line"/>
      <point x="411" y="0" type="line"/>
      <point x="411" y="37" type="line"/>
      <point x="259" y="37" type="line"/>
      <point x="259" y="484" type="line"/>
      <point x="228" y="484" type="line"/>
      <point x="65" y="374" type="line"/>
      <point x="86" y="343" type="line"/>
      <point x="243" y="448" type="line"/>
      <point x="217" y="448" type="line"/>
      <point x="217" y="37" type="line"/>
      <point x="55" y="37" type="line"/>
    </contour>
  </outline>
</glyph>
<glyph name="one.tosf.ss01" format="2">
  <advance width="600"/>
  <outline>
    <contour>
      <point x="227" y="0" type="line"/>
      <point x="269" y="0" type="line"/>
      <point x="269" y="484" type="line"/>
      <point x="238" y="484" type="line"/>
      <point x="58" y="363" type="line"/>
      <point x="79" y="332" type="line"/>
      <point x="253" y="448" type="line"/>
      <point x="227" y="448" type="line"/>
    </contour>
  </outline>
</glyph>
<glyph name="tildecomb_dieresiscomb" format="2">
  <anchor x="0" y="484" name="_top"/>
  <outline>
    <contour>
      <point x="-113" y="545" type="line"/>
      <point x="-106" y="589"/>
      <point x="-93" y="607"/>
      <point x="-63" y="607" type="curve" smooth="yes"/>
      <point x="-47" y="607"/>
      <point x="-33" y="599"/>
      <point x="-9" y="580" type="curve" smooth="yes"/>
      <point x="20" y="557"/>
      <point x="40" y="547"/>
      <point x="64" y="547" type="curve" smooth="yes"/>
      <point x="109" y="547"/>
      <point x="140" y="579"/>
      <point x="146" y="643" type="curve"/>
      <point x="113" y="645" type="line"/>
      <point x="106" y="601"/>
      <point x="93" y="583"/>
      <point x="63" y="583" type="curve" smooth="yes"/>
      <point x="47" y="583"/>
      <point x="34" y="590"/>
      <point x="9" y="610" type="curve" smooth="yes"/>
      <point x="-21" y="634"/>
      <point x="-40" y="643"/>
      <point x="-63" y="643" type="curve" smooth="yes"/>
      <point x="-109" y="643"/>
      <point x="-140" y="611"/>
      <point x="-146" y="547" type="curve"/>
    </contour>
    <contour>
      <point x="-111" y="689" type="line"/>
      <point x="-50" y="689" type="line"/>
      <point x="-50" y="749" type="line"/>
      <point x="-111" y="749" type="line"/>
    </contour>
    <contour>
      <point x="50" y="689" type="line"/>
      <point x="111" y="689" type="line"/>
      <point x="111" y="749" type="line"/>
      <point x="50" y="749" type="line"/>
    </contour>
  </outline>
</glyph>
<glyph name="zero.tosf" format="2">
  <advance width="600"/>
  <outline>
    <contour>
      <point x="250" y="-8" type="curve" smooth="yes"/>
      <point x="389" y="-8"/>
      <point x="485" y="96"/>
      <point x="485" y="242" type="curve" smooth="yes"/>
      <point x="485" y="388"/>
      <point x="389" y="492"/>
      <point x="250" y="492" type="curve" smooth="yes"/>
      <point x="110" y="492"/>
      <point x="15" y="389"/>
      <point x="15" y="242" type="curve" smooth="yes"/>
      <point x="15" y="95"/>
      <point x="110" y="-8"/>
    </contour>
    <contour>
      <point x="250" y="31" type="curve" smooth="yes"/>
      <point x="135" y="31"/>
      <point x="58" y="118"/>
      <point x="58" y="242" type="curve" smooth="yes"/>
      <point x="58" y="366"/>
      <point x="135" y="453"/>
      <point x="250" y="453" type="curve" smooth="yes"/>
      <point x="365" y="453"/>
      <point x="442" y="367"/>
      <point x="442" y="242" type="curve" smooth="yes"/>
      <point x="442" y="117"/>
      <point x="365" y="31"/>
    </contour>
  </outline>
</glyph>
